# xmcd
#
# Track frame offsets: 
#        150
#        13111
#        20964
#        35264
#        47456
#        62465
#        80275
#        94053
#        109608
#        124082
#        134239
#        153094
#        166799
#        179435
#        195266
#
# Disc length: 2826 seconds
#
# Revision: 2
# Processed by: cddbd v1.5.2PL0 Copyright (c) Steve Scherf et al.
# Submitted via: ExactAudioCopyFreeDBPlugin 1.0
#
DISCID=b70b080f
DTITLE=George Thorogood - Party Of One
DYEAR=2017
DGENRE=Blues
TTITLE0=I'm A Steady Rollin' Man
TTITLE1=Soft Spot
TTITLE2=Tallahassee Women
TTITLE3=Wang Dang Doodle
TTITLE4=Boogie Chillen
TTITLE5=No Expectations
TTITLE6=Bad News
TTITLE7=Down The Highway
TTITLE8=Got To Move
TTITLE9=Born With The Blues
TTITLE10=The Sky Is Crying
TTITLE11=The Hookers (If You Miss 'im . . . I Got 'im)
TTITLE12=Pictures From Life's Other Side
TTITLE13=One Bourbon, One Scotch, One Beer (Live from Rockline)
TTITLE14=Dynaflow Blues
EXTD=
EXTT0=
EXTT1=
EXTT2=
EXTT3=
EXTT4=
EXTT5=
EXTT6=
EXTT7=
EXTT8=
EXTT9=
EXTT10=
EXTT11=
EXTT12=
EXTT13=
EXTT14=
PLAYORDER=
